# xmcd
# Track frame offsets:
# 150
# 12017
# 27167
# 39617
# 56555
# 72237
# 86245
# 100222
# 111240
# 124937
#
# Disc length: 1857 seconds
# Revision: 0
# Processed by: cddbd v1.4PL0 Copyright (c) Steve Scherf et al.
# Submitted via: VisiTrax 2.9.5.180 - For more info visit www.synapsa.com
#
DISCID=83073f0a
DTITLE=Darlen Austin - Holding On
DYEAR=2000
DGENRE=
TTITLE0=I Had A Heart
TTITLE1=You Only Love Me When I´m Leavin´
TTITLE2=If You Really So
TTITLE3=The Mistake I Should Have Made
TTITLE4=Sunday Go To Cheatin´ Clothes
TTITLE5=Guilty Eyes
TTITLE6=Holding On
TTITLE7=I´m  Gonna Seat You To The Truck
TTITLE8=Easier To Fall All To Pieces
TTITLE9=Take Me Tonight
EXTD=
EXTT0=
EXTT1=
EXTT2=
EXTT3=
EXTT4=
EXTT5=
EXTT6=
EXTT7=
EXTT8=
EXTT9=
PLAYORDER=
